<?xml version="1.0" standalone="no"?><!DOCTYPE svg PUBLIC "-//W3C//DTD SVG 1.1//EN" "http://www.w3.org/Graphics/SVG/1.1/DTD/svg11.dtd"><svg t="1527149764148" class="icon" style="" viewBox="0 0 1024 1024" version="1.1" xmlns="http://www.w3.org/2000/svg" p-id="1543" xmlns:xlink="http://www.w3.org/1999/xlink" width="200" height="200"><defs><style type="text/css"></style></defs><path d="M1024 128 0 128 0 0 1024 0 1024 128Z" p-id="1544"></path><path d="M640 384 0 384 0 256 640 256 640 384Z" p-id="1545"></path><path d="M1024 768 0 768 0 640 1024 640 1024 768Z" p-id="1546"></path><path d="M768 1024 0 1024 0 896 768 896 768 1024Z" p-id="1547"></path><path d="M1024 960c0 35.328-28.736 64-64 64-35.488 0-64.128-28.672-64.128-64s28.64-64 64.128-64C995.264 896 1024 924.672 1024 960z" p-id="1548"></path></svg>