<?xml version="1.0" standalone="no"?><!DOCTYPE svg PUBLIC "-//W3C//DTD SVG 1.1//EN" "http://www.w3.org/Graphics/SVG/1.1/DTD/svg11.dtd"><svg t="1526829941039" class="icon" style="" viewBox="0 0 1024 1024" version="1.1" xmlns="http://www.w3.org/2000/svg" p-id="2553" xmlns:xlink="http://www.w3.org/1999/xlink" width="200" height="200"><defs><style type="text/css"></style></defs><path d="M512 416a96 96 0 1 0 0 192 96 96 0 0 0 0-192z m511.952 102.064c-0.016-0.448-0.064-0.864-0.096-1.296a8.16 8.16 0 0 0-0.08-0.656c0-0.32-0.064-0.624-0.128-0.928-0.032-0.368-0.064-0.736-0.128-1.088-0.032-0.048-0.032-0.096-0.032-0.144a39.488 39.488 0 0 0-10.704-21.536c-32.672-39.616-71.536-74.88-111.04-107.072-85.088-69.392-182.432-127.424-289.856-150.8-62.112-13.504-124.576-14.064-187.008-2.64-56.784 10.384-111.504 32-162.72 58.784-80.176 41.92-153.392 99.696-217.184 164.48-11.808 11.984-23.552 24.224-34.288 37.248-14.288 17.328-14.288 37.872 0 55.216 32.672 39.616 71.52 74.848 111.04 107.056 85.12 69.392 182.448 127.408 289.888 150.784 62.096 13.504 124.608 14.096 187.008 2.656 56.768-10.4 111.488-32 162.736-58.768 80.176-41.936 153.376-99.696 217.184-164.48 11.792-12 23.536-24.224 34.288-37.248 5.712-5.872 9.456-13.44 10.704-21.568l0.032-0.128a12.592 12.592 0 0 0 0.128-1.088c0.064-0.304 0.096-0.624 0.128-0.928l0.08-0.656 0.096-1.28c0.032-0.656 0.048-1.296 0.048-1.952l-0.096-1.968zM512 704c-106.032 0-192-85.952-192-192s85.952-192 192-192 192 85.968 192 192c0 106.048-85.968 192-192 192z" fill="" p-id="2554"></path></svg>